<svg width="15" height="16" viewBox="0 0 15 16" fill="none" xmlns="http://www.w3.org/2000/svg">
<path d="M4.5 15.0154C5.32843 15.0154 6 14.3439 6 13.5154C6 12.687 5.32843 12.0154 4.5 12.0154C3.67157 12.0154 3 12.687 3 13.5154C3 14.3439 3.67157 15.0154 4.5 15.0154Z" fill="#A6A6A6"/>
<path d="M12.5 15.0154C13.3284 15.0154 14 14.3439 14 13.5154C14 12.687 13.3284 12.0154 12.5 12.0154C11.6716 12.0154 11 12.687 11 13.5154C11 14.3439 11.6716 15.0154 12.5 15.0154Z" fill="#A6A6A6"/>
<path d="M15 2.01543H4.07L3.648 0.0154343H0V2.01543H2.031L4.016 11.0154H15V9.01543H9.441L15 6.96643V2.01543Z" fill="#A6A6A6"/>
</svg>
